<?xml version="1.0"?><svg version="1.2" baseProfile="tiny-ps" viewBox="0 0 300 300" xmlns="http://www.w3.org/2000/svg" xmlns:xlink="http://www.w3.org/1999/xlink"><title>ibn e aadam</title><g><g fill="#ffd34c" transform="matrix(.1 0 0 -.1 0 300)"><path d="M0 1500V0h3000v3000H0V1500z"/></g><g fill="#b0b84e" transform="matrix(.1 0 0 -.1 0 300)"><path d="M0 1500V0h3000v3000H0V1500zm1487 889 43-21 30-43 30-43 11-51 11-50-12-55-11-55-29-39-28-39-44-22-44-21h-105l-37 19c-43 22-72 52-98 101l-19 35v150l22 40c24 45 54 75 98 98l30 16 54 1h55l43-21zm-129-761 10-13 10-115 11-115 21-66 20-67 41-61c22-33 59-76 81-96l41-35 56-21 56-21 85 4 85 4 56 26c31 14 87 47 124 72 71 48 84 52 116 36l19-11v-80l-20-39-20-39-66-66c-136-136-307-253-431-294l-62-21h-150l-58 21-57 22-46 43-47 44-26 48c-15 27-34 78-43 113l-17 64 1 111v111l16 85c29 155 93 308 144 349 29 22 36 23 50 7z"/></g><g fill="#53994e" transform="matrix(.1 0 0 -.1 0 300)"><path d="M0 1500V0h3000v3000H0V1500zm1455 909 40-11 45-47 45-46 13-41c15-53 15-115 0-168l-13-41-45-46-45-47-45-12-45-12-38 5-39 5-46 29-46 28-28 54-28 53v134l26 52 26 52 30 22c63 45 123 56 193 37zm-85-795c6-14 10-51 10-82 1-31 7-92 15-135l13-78 30-62 29-62 56-61 57-61 52-24 53-23h80l80-1 53 18 52 19 82 54 82 54h49l19-17 18-16v-62l-29-50-29-50-76-73c-158-150-325-255-456-288l-65-16-63 5-63 6-46 21c-98 43-162 118-203 235l-21 60-6 95-6 95 12 90c15 115 44 221 86 312l33 72 26 26 25 25h41l10-26z"/></g></g></svg>